<svg width="26" height="26" viewBox="0 0 26 26" fill="none" xmlns="http://www.w3.org/2000/svg">
<g clip-path="url(#Email-clip0)">
<path d="M2.49549 9.08274C2.82438 9.31483 3.8158 10.0041 5.46978 11.1503C7.12382 12.2964 8.39093 13.179 9.27115 13.7979C9.36786 13.8657 9.57332 14.0132 9.88763 14.2405C10.202 14.468 10.4632 14.6518 10.671 14.792C10.879 14.9321 11.1305 15.0894 11.4256 15.2634C11.7207 15.4373 11.9988 15.5681 12.26 15.6547C12.5212 15.742 12.763 15.7853 12.9854 15.7853H13H13.0146C13.2371 15.7853 13.479 15.742 13.7402 15.6547C14.0012 15.5681 14.2796 15.4372 14.5744 15.2634C14.8694 15.0892 15.1208 14.9321 15.3288 14.792C15.5368 14.6518 15.7978 14.468 16.1123 14.2405C16.4265 14.013 16.6322 13.8657 16.729 13.7979C17.6187 13.179 19.8823 11.6071 23.519 9.08244C24.2251 8.58935 24.815 7.99436 25.2889 7.2979C25.7631 6.60174 26 5.87143 26 5.10737C26 4.46889 25.7701 3.92234 25.3106 3.46777C24.8512 3.0131 24.307 2.78589 23.6785 2.78589H2.32133C1.57659 2.78589 1.00346 3.03734 0.602045 3.54024C0.200682 4.04324 0 4.67196 0 5.42636C0 6.03572 0.266085 6.69606 0.798001 7.40696C1.32987 8.1179 1.89588 8.67655 2.49549 9.08274Z" fill="url(#Email-paint0_linear)"/>
<path d="M24.5489 10.635C21.3766 12.7822 18.9678 14.4508 17.3237 15.6407C16.7724 16.0468 16.3251 16.3638 15.9816 16.5909C15.6382 16.8183 15.1814 17.0504 14.6106 17.2873C14.04 17.5245 13.5082 17.6427 13.0148 17.6427H13H12.9854C12.4922 17.6427 11.9601 17.5245 11.3895 17.2873C10.8189 17.0504 10.3618 16.8183 10.0184 16.5909C9.67514 16.3638 9.22774 16.0468 8.67646 15.6407C7.37058 14.6832 4.96698 13.0144 1.46555 10.635C0.914069 10.2677 0.425603 9.84668 0 9.3728V20.8926C0 21.5314 0.227209 22.0776 0.68188 22.5322C1.13645 22.987 1.68305 23.2143 2.32148 23.2143H23.6787C24.317 23.2143 24.8635 22.987 25.3181 22.5322C25.7729 22.0775 26 21.5314 26 20.8926V9.3728C25.584 9.83688 25.1005 10.2579 24.5489 10.635Z" fill="url(#Email-paint1_linear)"/>
</g>
<defs>
<linearGradient id="Email-paint0_linear" x1="-1.93715e-07" y1="9.28558" x2="26" y2="9.28558" gradientUnits="userSpaceOnUse">
<stop stop-color="#EBCD72"/>
<stop offset="1" stop-color="#EA9055"/>
</linearGradient>
<linearGradient id="Email-paint1_linear" x1="-1.93715e-07" y1="16.2936" x2="26" y2="16.2936" gradientUnits="userSpaceOnUse">
<stop stop-color="#EBCD72"/>
<stop offset="1" stop-color="#EA9055"/>
</linearGradient>
<clipPath id="Email-clip0">
<rect width="26" height="26" fill="white"/>
</clipPath>
</defs>
</svg>
