<svg width="26" height="26" viewBox="0 0 26 26" fill="none" xmlns="http://www.w3.org/2000/svg">
<path d="M13.0001 0.0541992C5.82041 0.0541992 0 5.87461 0 13.0543C0 19.4936 4.68678 24.8264 10.8319 25.8591V15.7664H7.69593V12.1345H10.8319V9.45645C10.8319 6.34915 12.7298 4.65584 15.5021 4.65584C16.8299 4.65584 17.971 4.75478 18.3022 4.79836V8.04633L16.3794 8.04726C14.872 8.04726 14.5814 8.76341 14.5814 9.81469V12.1326H18.1782L17.709 15.7646H14.5814V25.946C21.0135 25.1631 26 19.6944 26 13.0506C26 5.87461 20.1796 0.0541992 13.0001 0.0541992Z" fill="url(#Facebook-paint0_linear)"/>
<defs>
<linearGradient id="Facebook-paint0_linear" x1="-9.68575e-08" y1="13.0001" x2="26" y2="13.0001" gradientUnits="userSpaceOnUse">
<stop stop-color="#7445F0"/>
<stop offset="1" stop-color="#4338E3"/>
</linearGradient>
</defs>
</svg>
