<svg width="125" height="31" viewBox="0 0 125 31" fill="none" xmlns="http://www.w3.org/2000/svg">
<path d="M48.2744 9.58105C49.2393 9.58105 50.0856 9.78841 50.8135 10.2031C51.5413 10.6178 52.0576 11.1637 52.3623 11.8408V9.89844H56.5518V22.7461C56.5518 23.8633 56.2301 24.8789 55.5869 25.793C54.9521 26.707 54.0719 27.4222 52.9463 27.9385C51.8291 28.4632 50.585 28.7256 49.2139 28.7256C47.3519 28.7256 45.7988 28.332 44.5547 27.5449C43.3105 26.7578 42.4557 25.5898 41.9902 24.041H46.2305C46.7214 24.9805 47.6989 25.4502 49.1631 25.4502C50.0771 25.4502 50.8262 25.2132 51.4102 24.7393C51.9941 24.2653 52.2861 23.5882 52.2861 22.708V20.6387C51.9561 21.2057 51.4271 21.6882 50.6992 22.0859C49.9714 22.4837 49.1631 22.6826 48.2744 22.6826C46.3786 22.6826 44.834 22.0648 43.6406 20.8291C42.4557 19.585 41.8633 18.0192 41.8633 16.1318C41.8633 14.2445 42.4557 12.6829 43.6406 11.4473C44.834 10.2031 46.3786 9.58105 48.2744 9.58105ZM46.9033 18.3408C47.4704 18.9163 48.2152 19.2041 49.1377 19.2041C50.0602 19.2041 50.8135 18.9163 51.3975 18.3408C51.9899 17.7568 52.2861 17.0205 52.2861 16.1318C52.2861 15.2432 51.9941 14.5111 51.4102 13.9355C50.8262 13.36 50.0687 13.0723 49.1377 13.0723C48.2152 13.0723 47.4704 13.36 46.9033 13.9355C46.3447 14.5026 46.0654 15.2347 46.0654 16.1318C46.0654 17.029 46.3447 17.7653 46.9033 18.3408ZM59.8018 23V9.89844H64.0674V23H59.8018ZM64.3848 6.00098C64.3848 6.68652 64.1478 7.26204 63.6738 7.72754C63.2083 8.18457 62.6286 8.41309 61.9346 8.41309C61.2575 8.41309 60.682 8.18457 60.208 7.72754C59.734 7.26204 59.4971 6.68652 59.4971 6.00098C59.4971 5.33236 59.734 4.7653 60.208 4.2998C60.682 3.83431 61.2575 3.60156 61.9346 3.60156C62.6286 3.60156 63.2083 3.83431 63.6738 4.2998C64.1478 4.75684 64.3848 5.32389 64.3848 6.00098ZM73.9443 19.7754C74.4014 19.7754 74.8542 19.7077 75.3027 19.5723V22.9492C75.0742 23.0423 74.7061 23.127 74.1982 23.2031C73.6904 23.2793 73.2165 23.3174 72.7764 23.3174C71.2445 23.3174 70.0977 22.8984 69.3359 22.0605C68.5827 21.2227 68.2061 20.0547 68.2061 18.5566V13.4023H65.9336V9.89844H68.2061V5.97559H72.459V9.89844H75.4297V13.4023H72.459V18.29C72.459 19.2803 72.9541 19.7754 73.9443 19.7754ZM81.9424 23H77.6768V4.02051H81.9424V11.7139C82.2471 11.0706 82.7422 10.5544 83.4277 10.165C84.1133 9.77572 84.8919 9.58105 85.7637 9.58105C87.2871 9.58105 88.4508 10.0592 89.2549 11.0156C90.0589 11.972 90.4609 13.2542 90.4609 14.8623V23H86.208V15.5605C86.208 14.8581 86.0345 14.3037 85.6875 13.8975C85.349 13.4827 84.8285 13.2754 84.126 13.2754C83.4743 13.2754 82.9453 13.4743 82.5391 13.8721C82.1413 14.2614 81.9424 14.8158 81.9424 15.5352V23ZM101.76 9.89844H106.025V23H101.887V21.0449C101.574 21.6966 101.066 22.2383 100.363 22.6699C99.6693 23.1016 98.8779 23.3174 97.9893 23.3174C96.4658 23.3174 95.3105 22.8434 94.5234 21.8955C93.7363 20.9391 93.3428 19.6527 93.3428 18.0361V9.89844H97.6084V17.3887C97.6084 18.9121 98.2812 19.6738 99.627 19.6738C100.304 19.6738 100.829 19.4792 101.201 19.0898C101.574 18.6921 101.76 18.1335 101.76 17.4141V9.89844ZM117.451 9.58105C119.339 9.58105 120.9 10.237 122.136 11.5488C123.38 12.8607 124.002 14.4941 124.002 16.4492C124.002 18.4043 123.38 20.0378 122.136 21.3496C120.9 22.6615 119.339 23.3174 117.451 23.3174C116.503 23.3174 115.657 23.1058 114.912 22.6826C114.176 22.251 113.617 21.7051 113.236 21.0449V23H109.136V4.02051H113.401V11.8408C113.706 11.1637 114.214 10.6178 114.925 10.2031C115.644 9.78841 116.486 9.58105 117.451 9.58105ZM116.601 19.7754C117.515 19.7754 118.264 19.4622 118.848 18.8359C119.44 18.2012 119.736 17.4056 119.736 16.4492C119.736 15.4928 119.44 14.7015 118.848 14.0752C118.264 13.4404 117.515 13.123 116.601 13.123C115.67 13.123 114.904 13.4362 114.303 14.0625C113.702 14.6803 113.401 15.4759 113.401 16.4492C113.401 17.4225 113.702 18.2223 114.303 18.8486C114.904 19.4665 115.67 19.7754 116.601 19.7754Z" fill="url(#GithubBig-paint0_linear)"/>
<g clip-path="url(#GithubBig-clip0)">
<path d="M13 2.54199C5.8175 2.54199 0 8.26199 0 15.3167C0 20.9619 3.7245 25.7492 8.88875 27.437C9.53875 27.5572 9.77708 27.1618 9.77708 26.8227C9.77708 26.5194 9.76625 25.7156 9.76083 24.6507C6.14467 25.4209 5.382 22.9368 5.382 22.9368C4.7905 21.4624 3.93575 21.0681 3.93575 21.0681C2.75817 20.2762 4.02675 20.2924 4.02675 20.2924C5.33217 20.3812 6.01792 21.6087 6.01792 21.6087C7.17708 23.5619 9.061 22.9975 9.80417 22.6714C9.92117 21.8448 10.2559 21.2826 10.6275 20.963C7.74042 20.6434 4.706 19.5449 4.706 14.6504C4.706 13.2562 5.20975 12.1165 6.04392 11.2227C5.89767 10.8999 5.45892 9.60099 6.15767 7.84166C6.15767 7.84166 7.24642 7.49933 9.73267 9.15141C10.7727 8.86758 11.8777 8.72674 12.9827 8.72024C14.0877 8.72674 15.1927 8.86758 16.2327 9.15141C18.7027 7.49933 19.7914 7.84166 19.7914 7.84166C20.4902 9.60099 20.0514 10.8999 19.9214 11.2227C20.7502 12.1165 21.2539 13.2562 21.2539 14.6504C21.2539 19.5579 18.2152 20.638 15.3227 20.9522C15.7777 21.3357 16.2002 22.1189 16.2002 23.316C16.2002 25.0255 16.1839 26.3992 16.1839 26.8141C16.1839 27.1488 16.4114 27.5486 17.0777 27.4207C22.2788 25.7437 26 20.9532 26 15.3167C26 8.26199 20.1793 2.54199 13 2.54199V2.54199Z" fill="url(#GithubBig-paint1_linear)"/>
</g>
<defs>
<linearGradient id="GithubBig-paint0_linear" x1="41" y1="15.5" x2="125" y2="15.5" gradientUnits="userSpaceOnUse">
<stop stop-color="#EBCD72"/>
<stop offset="1" stop-color="#EA9055"/>
</linearGradient>
<linearGradient id="GithubBig-paint1_linear" x1="-1.93715e-07" y1="15.0005" x2="26" y2="15.0005" gradientUnits="userSpaceOnUse">
<stop stop-color="#EBCD72"/>
<stop offset="1" stop-color="#EA9055"/>
</linearGradient>
<clipPath id="GithubBig-clip0">
<rect width="26" height="26" fill="white" transform="translate(0 2)"/>
</clipPath>
</defs>
</svg>
