<svg width="205" height="65" viewBox="0 0 205 65" fill="none" xmlns="http://www.w3.org/2000/svg">
<circle cx="35.5" cy="59.5" r="2.5" fill="#65C9C3"/>
<circle cx="173" cy="58" r="4" fill="#11AF84"/>
<circle cx="58" cy="37" r="2" fill="#64C780"/>
<circle cx="3" cy="40" r="3" fill="#32BD73"/>
<circle cx="25.5" cy="14.5" r="1.5" fill="#65C8A4"/>
<circle cx="38" cy="5" r="2" fill="#40D6D3"/>
<circle cx="55" cy="52" r="1" fill="#20A273"/>
<circle cx="20.5" cy="47.5" r="1.5" fill="#64C7AA"/>
<circle cx="64.5" cy="62.5" r="2.5" fill="#65C9C3"/>
<circle cx="111" cy="57" r="3" fill="#11AF84"/>
<circle cx="132" cy="11" r="2" fill="#64C780"/>
<circle cx="72" cy="3" r="3" fill="#32BD73"/>
<circle cx="104" cy="4" r="2" fill="#40D6D3"/>
<circle cx="141" cy="60" r="1" fill="#20A273"/>
<circle cx="92" cy="12" r="1" fill="#2BCA8B"/>
<circle cx="125.5" cy="53.5" r="1.5" fill="#A2C864"/>
<circle cx="197" cy="38" r="1" fill="#55D7BB"/>
<circle cx="204" cy="49" r="1" fill="#20A273"/>
<circle cx="86.5" cy="62.5" r="0.5" fill="#65C98D"/>
<circle cx="8.5" cy="18.5" r="0.5" fill="#65C98D"/>
<circle cx="53.5" cy="8.5" r="0.5" fill="#65C98D"/>
<circle cx="153" cy="17" r="1" fill="#55D7BB"/>
<circle cx="200" cy="17" r="3" fill="#32BD73"/>
<circle cx="181" cy="15" r="1" fill="#2BCA8B"/>
<circle cx="192" cy="26" r="2" fill="#64C780"/>
<circle cx="166" cy="10" r="2" fill="#40D6D3"/>
<circle cx="190" cy="53" r="1" fill="#20A273"/>
<circle cx="151.5" cy="52.5" r="1.5" fill="#64C7AA"/>
<circle cx="92.5" cy="51.5" r="1.5" fill="#64C7AA"/>
</svg>
