<svg width="26" height="26" viewBox="0 0 26 26" fill="none" xmlns="http://www.w3.org/2000/svg">
<g clip-path="url(#Link-clip0)">
<path d="M15.8638 10.1343C15.5558 9.82448 15.2143 9.54985 14.8457 9.31543C13.8692 8.69017 12.7341 8.35792 11.5746 8.35792C9.96526 8.35493 8.42133 8.99435 7.28536 10.1343L1.77435 15.6496C0.640302 16.7859 0.00290879 18.3253 0.00189335 19.9306C-0.000239084 23.2806 2.71363 25.998 6.06358 26.0001C7.67041 26.0057 9.21292 25.3693 10.3485 24.2324L14.8977 19.6832C14.9803 19.6013 15.0265 19.4895 15.0258 19.3731C15.0245 19.1338 14.8293 18.941 14.59 18.9424H14.4168C13.4663 18.9457 12.5243 18.7632 11.6439 18.4051C11.4817 18.3384 11.2953 18.376 11.1717 18.5004L7.90062 21.7759C6.88487 22.7916 5.23802 22.7916 4.22228 21.7759C3.20653 20.7601 3.20653 19.1133 4.22228 18.0975L9.75497 12.5692C10.7699 11.5555 12.4141 11.5555 13.429 12.5692C14.113 13.2129 15.1799 13.2129 15.8639 12.5692C16.1581 12.2746 16.3366 11.884 16.3665 11.4687C16.3981 10.9724 16.2151 10.4863 15.8638 10.1343Z" fill="url(#Link-paint0_linear)"/>
<path d="M24.2215 1.77666C21.8526 -0.592219 18.0119 -0.592219 15.6431 1.77666L11.0982 6.31716C10.9734 6.44256 10.9374 6.63118 11.0072 6.79376C11.0762 6.95678 11.2375 7.06143 11.4145 7.05802H11.5747C12.5241 7.0563 13.4645 7.24024 14.3432 7.59961C14.5055 7.66638 14.6919 7.6287 14.8155 7.50431L18.0779 4.24621C19.0936 3.23047 20.7405 3.23047 21.7562 4.24621C22.772 5.26196 22.772 6.9088 21.7562 7.92455L17.6923 11.9841L17.6576 12.0231L16.2365 13.4356C15.2216 14.4492 13.5775 14.4492 12.5625 13.4356C11.8785 12.7918 10.8116 12.7918 10.1276 13.4356C9.83149 13.7323 9.65292 14.1264 9.62505 14.5447C9.59336 15.041 9.7764 15.527 10.1276 15.8791C10.6291 16.3827 11.2158 16.7934 11.8606 17.0922C11.9516 17.1355 12.0426 17.1702 12.1336 17.2092C12.2246 17.2482 12.3199 17.2785 12.4109 17.3132C12.5018 17.3479 12.5971 17.3782 12.6881 17.4042L12.9438 17.4735C13.1171 17.5168 13.2904 17.5515 13.468 17.5818C13.6819 17.6135 13.8974 17.6338 14.1136 17.6424H14.4168H14.4428L14.7028 17.6121C14.7981 17.6078 14.8977 17.5861 15.0104 17.5861H15.1577L15.4566 17.5428L15.5953 17.5168L15.8466 17.4648H15.8942C16.9585 17.1975 17.9302 16.6465 18.706 15.8704L24.2214 10.3551C26.5904 7.98624 26.5904 4.14553 24.2215 1.77666Z" fill="url(#Link-paint1_linear)"/>
</g>
<defs>
<linearGradient id="Link-paint0_linear" x1="0.00189201" y1="16.2505" x2="16.37" y2="16.2505" gradientUnits="userSpaceOnUse">
<stop stop-color="#E96FCF"/>
<stop offset="1" stop-color="#BA67C8"/>
</linearGradient>
<linearGradient id="Link-paint1_linear" x1="9.62152" y1="7.89267" x2="25.9982" y2="7.89267" gradientUnits="userSpaceOnUse">
<stop stop-color="#E96FCF"/>
<stop offset="1" stop-color="#BA67C8"/>
</linearGradient>
<clipPath id="Link-clip0">
<rect width="26" height="26" fill="white"/>
</clipPath>
</defs>
</svg>
