<svg width="173" height="65" viewBox="0 0 173 65" fill="none" xmlns="http://www.w3.org/2000/svg">
<circle cx="38.5" cy="62.5" r="2.5" fill="#E0813B"/>
<circle cx="47" cy="3" r="1" fill="#EA9256"/>
<circle cx="57" cy="17" r="2" fill="#EAAE63"/>
<circle cx="3" cy="28" r="3" fill="#EA8357"/>
<circle cx="71" cy="13" r="3" fill="#EA8357"/>
<circle cx="4" cy="48" r="2" fill="#FECE53"/>
<circle cx="10.5" cy="8.5" r="1.5" fill="#EBD06F"/>
<circle cx="29" cy="9" r="3" fill="#DAB14A"/>
<circle cx="164" cy="33" r="3" fill="#DAB14A"/>
<circle cx="99" cy="58" r="3" fill="#DAB14A"/>
<circle cx="63" cy="57" r="2" fill="#FECE53"/>
<circle cx="86.5" cy="53.5" r="1.5" fill="#EAAF64"/>
<circle cx="141" cy="54" r="2" fill="#EA9357"/>
<circle cx="125" cy="52" r="1" fill="#EA9256"/>
<circle cx="20" cy="53" r="1" fill="#EBD06F"/>
<circle cx="104" cy="7" r="3" fill="#EA8357"/>
<circle cx="112" cy="54" r="1" fill="#EA8357"/>
<circle cx="53.5" cy="51.5" r="0.5" fill="#DAB14A"/>
<circle cx="158" cy="49" r="1" fill="#EBC770"/>
<circle cx="172" cy="21" r="1" fill="#EA9256"/>
<circle cx="149" cy="3" r="1" fill="#EA9256"/>
<circle cx="125.5" cy="6.5" r="1.5" fill="#EBD06F"/>
<circle cx="83" cy="1" r="1" fill="#EBD06F"/>
<circle cx="16" cy="20" r="1" fill="#EA8357"/>
<circle cx="157.5" cy="13.5" r="0.5" fill="#DAB14A"/>
</svg>
