<svg width="194" height="63" viewBox="0 0 194 63" fill="none" xmlns="http://www.w3.org/2000/svg">
<circle cx="55.5" cy="31.5" r="2.5" fill="#A04FDF"/>
<circle cx="40.5" cy="51.5" r="2.5" fill="#A834B4"/>
<circle cx="85.5" cy="2.5" r="2.5" fill="#A834B4"/>
<circle cx="56.5" cy="8.5" r="2.5" fill="#C63CDB"/>
<circle cx="2.5" cy="36.5" r="2.5" fill="#771DE9"/>
<circle cx="15" cy="54" r="3" fill="#DB57C0"/>
<circle cx="14" cy="14" r="1" fill="#E66F8C"/>
<circle cx="27" cy="4" r="2" fill="#B126E1"/>
<circle cx="64" cy="57" r="1" fill="#E4329D"/>
<circle cx="191.5" cy="37.5" r="2.5" fill="#771DE9"/>
<circle cx="163.5" cy="48.5" r="1.5" fill="#E46E91"/>
<circle cx="187.5" cy="23.5" r="1.5" fill="#E46E91"/>
<circle cx="146" cy="60" r="3" fill="#DB57C0"/>
<circle cx="178" cy="54" r="1" fill="#E4329D"/>
<circle cx="38" cy="12" r="1" fill="#ED4CCE"/>
<circle cx="109.5" cy="57.5" r="2.5" fill="#A834B4"/>
<circle cx="86" cy="55" r="3" fill="#DB57C0"/>
<circle cx="162" cy="7" r="3" fill="#DB57C0"/>
<circle cx="128" cy="10" r="2" fill="#B126E1"/>
<circle cx="142" cy="14" r="1" fill="#ED4CCE"/>
<circle cx="112" cy="7" r="1" fill="#ED4CCE"/>
<circle cx="69.5" cy="11.5" r="1.5" fill="#E46E91"/>
<circle cx="121" cy="50" r="1" fill="#E66F8C"/>
<circle cx="97" cy="17" r="1" fill="#E4329D"/>
<circle cx="175" cy="20" r="1" fill="#E4329D"/>
<circle cx="134" cy="55" r="1" fill="#ED4CCE"/>
<circle cx="12.5" cy="26.5" r="1.5" fill="#11AFA6"/>
</svg>
