<svg width="159" height="31" viewBox="0 0 159 31" fill="none" xmlns="http://www.w3.org/2000/svg">
<path d="M0.459359 14.8545L6.45028 17.0905L8.76913 24.5479C8.91751 25.0255 9.50155 25.2021 9.88921 24.8851L13.2287 22.1628C13.5787 21.8775 14.0773 21.8633 14.4431 22.1289L20.4663 26.5018C20.881 26.8032 21.4685 26.576 21.5725 26.0749L25.9848 4.85102C26.0983 4.30363 25.5605 3.84699 25.0392 4.04857L0.452339 13.5335C-0.154415 13.7675 -0.149128 14.6265 0.459359 14.8545ZM8.39543 15.9002L20.1039 8.68897C20.3143 8.55975 20.5308 8.84427 20.3501 9.01189L10.6872 17.994C10.3476 18.3102 10.1285 18.7333 10.0664 19.1925L9.73729 21.6318C9.69369 21.9575 9.23618 21.9899 9.14631 21.6747L7.88037 17.2265C7.73537 16.7192 7.94667 16.1772 8.39543 15.9002Z" fill="url(#TelegramBig-paint0_linear)"/>
<path d="M49.1885 19.7754C49.6455 19.7754 50.0983 19.7077 50.5469 19.5723V22.9492C50.3184 23.0423 49.9502 23.127 49.4424 23.2031C48.9346 23.2793 48.4606 23.3174 48.0205 23.3174C46.4886 23.3174 45.3418 22.8984 44.5801 22.0605C43.8268 21.2227 43.4502 20.0547 43.4502 18.5566V13.4023H41.1777V9.89844H43.4502V5.97559H47.7031V9.89844H50.6738V13.4023H47.7031V18.29C47.7031 19.2803 48.1982 19.7754 49.1885 19.7754ZM59.3193 20.2197C59.9456 20.2197 60.4958 20.1055 60.9697 19.877C61.4521 19.64 61.8203 19.3184 62.0742 18.9121H65.9971C65.5654 20.1901 64.7445 21.2438 63.5342 22.0732C62.3324 22.9027 60.9274 23.3174 59.3193 23.3174C57.0765 23.3174 55.3161 22.6826 54.0381 21.4131C52.7686 20.1436 52.1338 18.4805 52.1338 16.4238C52.1338 14.401 52.7855 12.7549 54.0889 11.4854C55.4007 10.2158 57.0807 9.58105 59.1289 9.58105C61.1855 9.58105 62.8613 10.2074 64.1562 11.46C65.4512 12.7126 66.0986 14.3841 66.0986 16.4746V17.7441H56.3232C56.6533 19.3945 57.652 20.2197 59.3193 20.2197ZM59.1797 12.5518C58.3587 12.5518 57.707 12.7718 57.2246 13.2119C56.7422 13.652 56.4417 14.2868 56.3232 15.1162H62.0234C61.9219 14.3206 61.6214 13.6943 61.1221 13.2373C60.6312 12.7803 59.9837 12.5518 59.1797 12.5518ZM68.5615 23V4.02051H72.8271V23H68.5615ZM82.3486 20.2197C82.9749 20.2197 83.5251 20.1055 83.999 19.877C84.4814 19.64 84.8496 19.3184 85.1035 18.9121H89.0264C88.5947 20.1901 87.7738 21.2438 86.5635 22.0732C85.3617 22.9027 83.9567 23.3174 82.3486 23.3174C80.1058 23.3174 78.3454 22.6826 77.0674 21.4131C75.7979 20.1436 75.1631 18.4805 75.1631 16.4238C75.1631 14.401 75.8148 12.7549 77.1182 11.4854C78.43 10.2158 80.11 9.58105 82.1582 9.58105C84.2148 9.58105 85.8906 10.2074 87.1855 11.46C88.4805 12.7126 89.1279 14.3841 89.1279 16.4746V17.7441H79.3525C79.6826 19.3945 80.6813 20.2197 82.3486 20.2197ZM82.209 12.5518C81.388 12.5518 80.7363 12.7718 80.2539 13.2119C79.7715 13.652 79.471 14.2868 79.3525 15.1162H85.0527C84.9512 14.3206 84.6507 13.6943 84.1514 13.2373C83.6605 12.7803 83.013 12.5518 82.209 12.5518ZM97.3037 9.58105C98.2686 9.58105 99.1149 9.78841 99.8428 10.2031C100.571 10.6178 101.087 11.1637 101.392 11.8408V9.89844H105.581V22.7461C105.581 23.8633 105.259 24.8789 104.616 25.793C103.981 26.707 103.101 27.4222 101.976 27.9385C100.858 28.4632 99.6143 28.7256 98.2432 28.7256C96.3812 28.7256 94.8281 28.332 93.584 27.5449C92.3398 26.7578 91.485 25.5898 91.0195 24.041H95.2598C95.7507 24.9805 96.7282 25.4502 98.1924 25.4502C99.1064 25.4502 99.8555 25.2132 100.439 24.7393C101.023 24.2653 101.315 23.5882 101.315 22.708V20.6387C100.985 21.2057 100.456 21.6882 99.7285 22.0859C99.0007 22.4837 98.1924 22.6826 97.3037 22.6826C95.4079 22.6826 93.8633 22.0648 92.6699 20.8291C91.485 19.585 90.8926 18.0192 90.8926 16.1318C90.8926 14.2445 91.485 12.6829 92.6699 11.4473C93.8633 10.2031 95.4079 9.58105 97.3037 9.58105ZM95.9326 18.3408C96.4997 18.9163 97.2445 19.2041 98.167 19.2041C99.0895 19.2041 99.8428 18.9163 100.427 18.3408C101.019 17.7568 101.315 17.0205 101.315 16.1318C101.315 15.2432 101.023 14.5111 100.439 13.9355C99.8555 13.36 99.098 13.0723 98.167 13.0723C97.2445 13.0723 96.4997 13.36 95.9326 13.9355C95.374 14.5026 95.0947 15.2347 95.0947 16.1318C95.0947 17.029 95.374 17.7653 95.9326 18.3408ZM117.121 13.8721H116.271C115.086 13.8721 114.239 14.1429 113.731 14.6846C113.224 15.2178 112.97 16.1276 112.97 17.4141V23H108.704V9.89844H112.843V12.3613C113.334 10.5417 114.624 9.63184 116.715 9.63184H117.121V13.8721ZM124.84 9.58105C125.813 9.58105 126.668 9.78841 127.404 10.2031C128.141 10.6178 128.661 11.1637 128.966 11.8408V9.89844H133.155V23H129.042V21.0449C128.653 21.7051 128.09 22.251 127.354 22.6826C126.626 23.1058 125.788 23.3174 124.84 23.3174C122.952 23.3174 121.387 22.6615 120.143 21.3496C118.907 20.0378 118.289 18.4043 118.289 16.4492C118.289 14.4941 118.907 12.8607 120.143 11.5488C121.387 10.237 122.952 9.58105 124.84 9.58105ZM125.69 19.7754C126.621 19.7754 127.387 19.4665 127.988 18.8486C128.589 18.2223 128.89 17.4225 128.89 16.4492C128.89 15.4759 128.589 14.6803 127.988 14.0625C127.387 13.4362 126.621 13.123 125.69 13.123C124.776 13.123 124.023 13.4404 123.431 14.0752C122.838 14.7015 122.542 15.4928 122.542 16.4492C122.542 17.4056 122.838 18.2012 123.431 18.8359C124.023 19.4622 124.776 19.7754 125.69 19.7754ZM140.544 23H136.278V9.89844H140.417V11.8408C140.73 11.1891 141.229 10.6517 141.915 10.2285C142.601 9.79688 143.383 9.58105 144.264 9.58105C146.193 9.58105 147.526 10.3343 148.263 11.8408C148.677 11.1553 149.261 10.6094 150.015 10.2031C150.768 9.78841 151.64 9.58105 152.63 9.58105C154.162 9.58105 155.321 10.0592 156.108 11.0156C156.896 11.9635 157.289 13.2458 157.289 14.8623V23H153.023V15.5605C153.023 14.0371 152.355 13.2754 151.018 13.2754C150.374 13.2754 149.862 13.4658 149.481 13.8467C149.101 14.2275 148.91 14.748 148.91 15.4082V23H144.645V15.5605C144.645 14.0371 143.98 13.2754 142.651 13.2754C141.983 13.2754 141.462 13.4701 141.09 13.8594C140.726 14.2487 140.544 14.8073 140.544 15.5352V23Z" fill="url(#TelegramBig-paint1_linear)"/>
<defs>
<linearGradient id="TelegramBig-paint0_linear" x1="0.000121973" y1="15.3187" x2="26.0001" y2="15.3187" gradientUnits="userSpaceOnUse">
<stop stop-color="#63C58F"/>
<stop offset="1" stop-color="#65C9C9"/>
</linearGradient>
<linearGradient id="TelegramBig-paint1_linear" x1="41" y1="15.5" x2="159" y2="15.5" gradientUnits="userSpaceOnUse">
<stop stop-color="#63C58F"/>
<stop offset="1" stop-color="#65C9C9"/>
</linearGradient>
</defs>
</svg>
