<svg width="26" height="26" viewBox="0 0 26 26" fill="none" xmlns="http://www.w3.org/2000/svg">
<g clip-path="url(#Telegram-clip0)">
<path d="M0.459359 12.5359L6.45028 14.7719L8.76913 22.2293C8.91751 22.7069 9.50155 22.8835 9.88921 22.5665L13.2287 19.8442C13.5787 19.5589 14.0773 19.5447 14.4431 19.8103L20.4663 24.1832C20.881 24.4846 21.4685 24.2574 21.5725 23.7563L25.9848 2.53242C26.0983 1.98503 25.5605 1.52838 25.0392 1.72997L0.452339 11.2149C-0.154415 11.4489 -0.149128 12.3079 0.459359 12.5359ZM8.39543 13.5816L20.1039 6.37036C20.3143 6.24114 20.5308 6.52567 20.3501 6.69328L10.6872 15.6754C10.3476 15.9916 10.1285 16.4147 10.0664 16.8739L9.73729 19.3132C9.69369 19.6389 9.23618 19.6713 9.14631 19.3561L7.88037 14.9079C7.73537 14.4005 7.94667 13.8586 8.39543 13.5816Z" fill="url(#Telegram-paint0_linear)"/>
</g>
<defs>
<linearGradient id="Telegram-paint0_linear" x1="0.000121973" y1="13.0001" x2="26.0001" y2="13.0001" gradientUnits="userSpaceOnUse">
<stop stop-color="#63C58F"/>
<stop offset="1" stop-color="#65C9C9"/>
</linearGradient>
<clipPath id="Telegram-clip0">
<rect width="26" height="26" fill="white"/>
</clipPath>
</defs>
</svg>
