<svg width="146" height="31" viewBox="0 0 146 31" fill="none" xmlns="http://www.w3.org/2000/svg">
<g clip-path="url(#YouTubeBig-clip0)">
<path fill-rule="evenodd" clip-rule="evenodd" d="M23.1728 6.46696C24.2864 6.76689 25.1646 7.64484 25.4643 8.75866C26.0213 10.7931 25.9999 15.0337 25.9999 15.0337C25.9999 15.0337 25.9999 19.2527 25.4645 21.2873C25.1646 22.4009 24.2866 23.2791 23.1728 23.5788C21.1382 24.1144 12.9999 24.1144 12.9999 24.1144C12.9999 24.1144 4.88291 24.1144 2.82708 23.5576C1.71326 23.2576 0.835308 22.3795 0.535383 21.2659C0 19.2527 0 15.0123 0 15.0123C0 15.0123 0 10.7931 0.535383 8.75866C0.83511 7.64504 1.73469 6.74546 2.82688 6.44574C4.86149 5.91016 12.9997 5.91016 12.9997 5.91016C12.9997 5.91016 21.1382 5.91016 23.1728 6.46696ZM17.1761 15.0124L10.4085 18.9102V11.1145L17.1761 15.0124Z" fill="url(#YouTubeBig-paint0_linear)"/>
</g>
<path d="M51.0674 9.89844H55.46L50.2295 23L48.249 28.4336H43.8057L46.0654 22.4795L41.0508 9.89844H45.4434L48.249 18.3662L51.0674 9.89844ZM60.1318 10.1523C61.0713 9.77148 62.1038 9.58105 63.2295 9.58105C64.3551 9.58105 65.3835 9.77148 66.3145 10.1523C67.2539 10.5332 68.0241 11.0452 68.625 11.6885C69.2259 12.3317 69.6872 13.0638 70.0088 13.8848C70.3389 14.6973 70.5039 15.5521 70.5039 16.4492C70.5039 17.3464 70.3389 18.2054 70.0088 19.0264C69.6872 19.8389 69.2259 20.5667 68.625 21.21C68.0241 21.8532 67.2539 22.3652 66.3145 22.7461C65.3835 23.127 64.3551 23.3174 63.2295 23.3174C62.1038 23.3174 61.0713 23.127 60.1318 22.7461C59.2008 22.3652 58.4349 21.8532 57.834 21.21C57.2331 20.5667 56.7676 19.8389 56.4375 19.0264C56.1159 18.2054 55.9551 17.3464 55.9551 16.4492C55.9551 15.5521 56.1159 14.6973 56.4375 13.8848C56.7676 13.0638 57.2331 12.3317 57.834 11.6885C58.4349 11.0452 59.2008 10.5332 60.1318 10.1523ZM60.9189 18.8105C61.4691 19.4538 62.2393 19.7754 63.2295 19.7754C64.2197 19.7754 64.9857 19.4538 65.5273 18.8105C66.0775 18.1673 66.3525 17.3802 66.3525 16.4492C66.3525 15.5182 66.0775 14.7311 65.5273 14.0879C64.9857 13.4447 64.2197 13.123 63.2295 13.123C62.2393 13.123 61.4691 13.4447 60.9189 14.0879C60.3773 14.7311 60.1064 15.5182 60.1064 16.4492C60.1064 17.3802 60.3773 18.1673 60.9189 18.8105ZM81.2188 9.89844H85.4844V23H81.3457V21.0449C81.0326 21.6966 80.5247 22.2383 79.8223 22.6699C79.1283 23.1016 78.3369 23.3174 77.4482 23.3174C75.9248 23.3174 74.7695 22.8434 73.9824 21.8955C73.1953 20.9391 72.8018 19.6527 72.8018 18.0361V9.89844H77.0674V17.3887C77.0674 18.9121 77.7402 19.6738 79.0859 19.6738C79.763 19.6738 80.2878 19.4792 80.6602 19.0898C81.0326 18.6921 81.2188 18.1335 81.2188 17.4141V9.89844ZM95.2217 19.7754C95.6787 19.7754 96.1315 19.7077 96.5801 19.5723V22.9492C96.3516 23.0423 95.9834 23.127 95.4756 23.2031C94.9678 23.2793 94.4938 23.3174 94.0537 23.3174C92.5218 23.3174 91.375 22.8984 90.6133 22.0605C89.86 21.2227 89.4834 20.0547 89.4834 18.5566V13.4023H87.2109V9.89844H89.4834V5.97559H93.7363V9.89844H96.707V13.4023H93.7363V18.29C93.7363 19.2803 94.2314 19.7754 95.2217 19.7754ZM107.244 9.89844H111.51V23H107.371V21.0449C107.058 21.6966 106.55 22.2383 105.848 22.6699C105.154 23.1016 104.362 23.3174 103.474 23.3174C101.95 23.3174 100.795 22.8434 100.008 21.8955C99.2207 20.9391 98.8271 19.6527 98.8271 18.0361V9.89844H103.093V17.3887C103.093 18.9121 103.766 19.6738 105.111 19.6738C105.788 19.6738 106.313 19.4792 106.686 19.0898C107.058 18.6921 107.244 18.1335 107.244 17.4141V9.89844ZM122.936 9.58105C124.823 9.58105 126.384 10.237 127.62 11.5488C128.864 12.8607 129.486 14.4941 129.486 16.4492C129.486 18.4043 128.864 20.0378 127.62 21.3496C126.384 22.6615 124.823 23.3174 122.936 23.3174C121.988 23.3174 121.141 23.1058 120.396 22.6826C119.66 22.251 119.102 21.7051 118.721 21.0449V23H114.62V4.02051H118.886V11.8408C119.19 11.1637 119.698 10.6178 120.409 10.2031C121.129 9.78841 121.971 9.58105 122.936 9.58105ZM122.085 19.7754C122.999 19.7754 123.748 19.4622 124.332 18.8359C124.924 18.2012 125.221 17.4056 125.221 16.4492C125.221 15.4928 124.924 14.7015 124.332 14.0752C123.748 13.4404 122.999 13.123 122.085 13.123C121.154 13.123 120.388 13.4362 119.787 14.0625C119.186 14.6803 118.886 15.4759 118.886 16.4492C118.886 17.4225 119.186 18.2223 119.787 18.8486C120.388 19.4665 121.154 19.7754 122.085 19.7754ZM138.31 20.2197C138.936 20.2197 139.486 20.1055 139.96 19.877C140.442 19.64 140.811 19.3184 141.064 18.9121H144.987C144.556 20.1901 143.735 21.2438 142.524 22.0732C141.323 22.9027 139.918 23.3174 138.31 23.3174C136.067 23.3174 134.306 22.6826 133.028 21.4131C131.759 20.1436 131.124 18.4805 131.124 16.4238C131.124 14.401 131.776 12.7549 133.079 11.4854C134.391 10.2158 136.071 9.58105 138.119 9.58105C140.176 9.58105 141.852 10.2074 143.146 11.46C144.441 12.7126 145.089 14.3841 145.089 16.4746V17.7441H135.313C135.644 19.3945 136.642 20.2197 138.31 20.2197ZM138.17 12.5518C137.349 12.5518 136.697 12.7718 136.215 13.2119C135.732 13.652 135.432 14.2868 135.313 15.1162H141.014C140.912 14.3206 140.612 13.6943 140.112 13.2373C139.621 12.7803 138.974 12.5518 138.17 12.5518Z" fill="url(#YouTubeBig-paint1_linear)"/>
<defs>
<linearGradient id="YouTubeBig-paint0_linear" x1="-1.34152e-07" y1="14.0541" x2="26" y2="14.0541" gradientUnits="userSpaceOnUse">
<stop stop-color="#E96FCF"/>
<stop offset="1" stop-color="#BA67C8"/>
</linearGradient>
<linearGradient id="YouTubeBig-paint1_linear" x1="41" y1="13.8684" x2="146" y2="13.8684" gradientUnits="userSpaceOnUse">
<stop stop-color="#E96FCF"/>
<stop offset="1" stop-color="#BA67C8"/>
</linearGradient>
<clipPath id="YouTubeBig-clip0">
<rect width="26" height="26" fill="white" transform="translate(0 2)"/>
</clipPath>
</defs>
</svg>
