<svg width="159" height="46" viewBox="0 0 159 46" fill="none" xmlns="http://www.w3.org/2000/svg">
<path fill-rule="evenodd" clip-rule="evenodd" d="M8.99841 40.5004C12.7591 43.3258 17.4341 45 22.5 45C34.9264 45 45 34.9264 45 22.5C45 17.2827 43.2243 12.4803 40.2443 8.66403C40.1892 8.59343 40.1337 8.52335 40.0777 8.45379C35.9547 3.30037 29.6131 -9.63803e-07 22.5 -9.83506e-07C10.0739 -1.01793e-06 -4.25504e-06 10.0739 -4.7982e-06 22.5C-5.11161e-06 29.6698 3.35322 36.0559 8.57748 40.176C8.71585 40.2854 8.85616 40.3936 8.99841 40.5004Z" fill="url(#FungibleNonFungible-paint0_radial)"/>
<path d="M25.8724 15.9661C25.3194 15.9661 24.7927 15.8541 24.3136 15.6515C22.8763 15.0435 22.4473 13.6381 22.4473 11.9794C22.4473 9.76762 23.5026 8.73926 25.7143 8.73926C27.3668 8.73926 28.9435 8.95751 29.5553 10.386C29.7624 10.8696 29.8771 11.4022 29.8771 11.9614C29.8771 14.1732 28.0841 15.9661 25.8724 15.9661Z" fill="#7345F0"/>
<path d="M31.2997 35.41C30.8334 35.41 30.3978 35.2782 30.0282 35.0501C29.3366 34.6232 29.0451 33.9269 29.0451 33.0545C29.0451 31.7158 29.9389 30.8032 31.2776 30.8032C32.2463 30.8032 33.1045 31.1304 33.4925 31.9518C33.6407 32.2656 33.7236 32.6161 33.7236 32.9861C33.7236 34.3248 32.6385 35.41 31.2997 35.41Z" fill="#7345F0"/>
<path d="M12.7518 37.2013C12.4319 37.2013 12.1265 37.1393 11.8469 37.0267C10.9564 36.6682 10.7841 35.7961 10.7841 34.7774C10.7841 33.4386 11.3909 33.0542 12.7295 33.0542C13.9009 33.0542 14.9003 33.1844 15.1263 34.2889C15.1586 34.4467 15.1755 34.61 15.1755 34.7774C15.1756 36.1161 14.0905 37.2013 12.7518 37.2013Z" fill="#7345F0"/>
<path d="M36.2529 23.3957C36.2529 24.2979 36.9843 25.0292 37.8864 25.0292C38.7886 25.0292 39.5199 24.2978 39.5199 23.3957C39.5199 22.4935 38.7886 21.7622 37.8864 21.7622C36.9843 21.7622 36.2529 22.4935 36.2529 23.3957Z" fill="#7345F0"/>
<path d="M22.0258 22.2891C22.0258 23.3076 22.8515 24.1333 23.87 24.1333C24.8886 24.1333 25.7143 23.3076 25.7143 22.2891C25.7143 21.2705 24.8886 20.4448 23.87 20.4448C22.8515 20.4448 22.0258 21.2705 22.0258 22.2891Z" fill="#7345F0"/>
<path d="M16.5457 5.42752C16.5457 6.27146 17.2298 6.95562 18.0738 6.95562C18.9177 6.95562 19.6019 6.27147 19.6019 5.42752C19.6019 4.58357 18.9177 3.89941 18.0738 3.89941C17.2298 3.89941 16.5457 4.58357 16.5457 5.42752Z" fill="#7345F0"/>
<path d="M19.3911 37.6756C19.3911 38.5195 20.0753 39.2037 20.9192 39.2037C21.7632 39.2037 22.4473 38.5195 22.4473 37.6756C22.4473 36.8316 21.7632 36.1475 20.9192 36.1475C20.0753 36.1475 19.3911 36.8316 19.3911 37.6756Z" fill="#7345F0"/>
<path d="M32.9512 12.752C32.9512 13.1786 33.297 13.5245 33.7237 13.5245C34.1503 13.5245 34.4962 13.1786 34.4962 12.752C34.4962 12.3253 34.1503 11.9795 33.7237 11.9795C33.297 11.9795 32.9512 12.3253 32.9512 12.752Z" fill="#7345F0"/>
<path d="M25.6795 40.7847C25.6795 41.2113 26.0254 41.5572 26.452 41.5572C26.8786 41.5572 27.2245 41.2113 27.2245 40.7847C27.2245 40.3581 26.8786 40.0122 26.452 40.0122C26.0254 40.0122 25.6795 40.3581 25.6795 40.7847Z" fill="#7345F0"/>
<path d="M37.3774 29.8242C37.3774 30.2509 37.7232 30.5967 38.1499 30.5967C38.5765 30.5967 38.9224 30.2509 38.9224 29.8242C38.9224 29.3976 38.5765 29.0518 38.1499 29.0518C37.7233 29.0518 37.3774 29.3976 37.3774 29.8242Z" fill="#7345F0"/>
<path d="M67.5137 35V9.79297H84.6523V15.1367H73.6484V19.9883H84.3359V25.3145H73.6484V35H67.5137ZM106.484 9.79297H112.602V35H107.205L94.3906 20.0234V35H88.2559V9.79297H93.6699L106.484 24.8047V9.79297ZM117.646 35V9.79297H134.785V15.1367H123.781V19.9883H134.469V25.3145H123.781V35H117.646ZM137.07 9.79297H157.373V15.1367H150.271V35H144.154V15.1367H137.07V9.79297Z" fill="url(#FungibleNonFungible-paint1_linear)"/>
<defs>
<radialGradient id="FungibleNonFungible-paint0_radial" cx="0" cy="0" r="1" gradientUnits="userSpaceOnUse" gradientTransform="translate(19.1803 30.1932) rotate(-19.1152) scale(25.263)">
<stop stop-color="#B19CF8"/>
<stop offset="1" stop-color="#8563F5"/>
</radialGradient>
<linearGradient id="FungibleNonFungible-paint1_linear" x1="65" y1="24.5" x2="159" y2="24.5" gradientUnits="userSpaceOnUse">
<stop stop-color="#B19CF8"/>
<stop offset="1" stop-color="#8563F5"/>
</linearGradient>
</defs>
</svg>
