<svg width="1333" height="302" viewBox="0 0 1333 302" fill="none" xmlns="http://www.w3.org/2000/svg">
<g clip-path="url(#MainIllustration-clip0)">
<circle r="8.5" transform="matrix(0.655942 -0.754811 0.75481 0.655943 842.554 182.153)" fill="#BC67C8"/>
<circle cx="892.531" cy="106.348" r="4.5" transform="rotate(-49.0088 892.531 106.348)" fill="#7345F0"/>
<circle r="3.5" transform="matrix(0.655942 -0.754811 0.754809 0.655944 813.396 211.132)" fill="#E76FCF"/>
<circle r="1.5" transform="matrix(0.65594 -0.754813 0.754808 0.655946 786.116 266.916)" fill="#7345F0"/>
<circle cx="851.296" cy="124.833" r="1.5" transform="rotate(-49.0088 851.296 124.833)" fill="#7345F0"/>
<path d="M405 -16.5C775 69 749.3 234.6 920.5 179C1134.5 109.5 817.5 21 1033 -7" stroke="url(#MainIllustration-paint0_linear)" stroke-width="8"/>
<path d="M936.816 -4.89463L944.562 10.5984C944.757 10.9854 945.069 11.2994 945.456 11.4924L960.949 19.2384C962.423 19.9754 962.423 22.0794 960.949 22.8164L945.456 30.5624C945.069 30.7564 944.756 31.0694 944.562 31.4564L936.816 46.9494C936.079 48.4234 933.975 48.4234 933.238 46.9494L925.492 31.4574C925.298 31.0704 924.985 30.7564 924.598 30.5634L909.105 22.8174C907.632 22.0804 907.632 19.9764 909.105 19.2394L924.598 11.4934C924.985 11.2994 925.299 10.9864 925.492 10.5994L933.238 -4.89362C933.975 -6.36862 936.079 -6.36863 936.816 -4.89463V-4.89463Z" fill="#F08BDB"/>
<ellipse cx="810.479" cy="70.988" rx="8.5" ry="8.5" transform="rotate(-21.635 810.479 70.988)" fill="#7345F0"/>
<circle r="2.5" transform="matrix(0.929551 -0.368694 0.368691 0.929552 736.472 169.192)" fill="#4438ED"/>
<circle r="4.5" transform="matrix(0.929552 -0.368692 0.368693 0.929551 889.714 26.6511)" fill="#7345F0"/>
<circle cx="771.261" cy="83.3158" r="3.5" transform="rotate(-21.635 771.261 83.3158)" fill="#4438ED"/>
<circle cx="926.932" cy="63.527" r="3.5" transform="rotate(-21.635 926.932 63.527)" fill="#4438ED"/>
<circle r="1.5" transform="matrix(0.92955 -0.368695 0.36869 0.929552 844.597 24.106)" fill="#7345F0"/>
<path fill-rule="evenodd" clip-rule="evenodd" d="M616.159 439.151C645.982 435.901 675.04 423.307 698.617 401.215C756.45 347.027 759.404 256.216 705.215 198.383C682.464 174.102 653.258 159.494 622.747 154.728C622.177 154.639 621.607 154.555 621.037 154.474C579.381 148.475 535.483 160.771 502.383 191.785C444.552 245.972 441.597 336.786 495.785 394.617C527.06 427.995 570.53 443.092 612.822 439.474C613.931 439.38 615.043 439.273 616.159 439.151Z" fill="url(#MainIllustration-paint1_radial)"/>
<path d="M587.702 251.385C585.129 253.796 582.189 255.572 579.075 256.718C569.735 260.156 561.61 255.486 554.376 247.766C544.732 237.473 545.158 228.085 555.452 218.44C563.142 211.234 571.432 205.374 580.509 209.355C583.582 210.702 586.438 212.681 588.876 215.284C598.521 225.577 597.996 241.74 587.702 251.385V251.385Z" fill="#EA9658"/>
<path d="M697.751 318.209C695.581 320.243 692.979 321.529 690.263 322.079C685.183 323.108 680.79 321.138 676.986 317.078C671.148 310.848 671.328 302.703 677.559 296.866C682.067 292.641 687.488 290.422 692.876 292.552C694.934 293.366 696.848 294.636 698.462 296.358C704.3 302.589 703.981 312.371 697.751 318.209Z" fill="#EA9658"/>
<path d="M668.413 240.696C672.347 244.894 678.94 245.109 683.138 241.175C687.337 237.241 687.551 230.648 683.617 226.449C679.683 222.251 673.09 222.036 668.892 225.97C664.693 229.904 664.479 236.497 668.413 240.696Z" fill="#EA9658"/>
<path d="M597.374 297.587C601.815 302.327 609.259 302.57 613.999 298.128C618.74 293.686 618.982 286.243 614.54 281.502C610.099 276.762 602.655 276.52 597.915 280.962C593.174 285.403 592.932 292.847 597.374 297.587Z" fill="#EA9658"/>
<path d="M498.339 243.009C502.019 246.937 508.187 247.138 512.115 243.457C516.042 239.777 516.243 233.61 512.563 229.682C508.882 225.754 502.715 225.553 498.787 229.234C494.859 232.914 494.659 239.081 498.339 243.009Z" fill="#EA9658"/>
<path d="M606.63 205.557C608.491 207.542 611.608 207.643 613.594 205.783C615.579 203.923 615.681 200.805 613.82 198.819C611.96 196.834 608.842 196.732 606.857 198.593C604.871 200.453 604.77 203.571 606.63 205.557Z" fill="#EA9658"/>
<path d="M701.679 265.711C703.54 267.696 706.658 267.798 708.643 265.937C710.629 264.077 710.73 260.959 708.87 258.974C707.009 256.988 703.891 256.887 701.906 258.747C699.92 260.608 699.819 263.725 701.679 265.711Z" fill="#EA9658"/>
<path d="M776.186 158.5H772.5C771.948 158.5 771.5 158.052 771.5 157.5V153.814C771.5 149.707 768.335 146.126 764.23 146.003C759.983 145.876 756.5 149.281 756.5 153.5V157.5C756.5 158.052 756.052 158.5 755.5 158.5H751.814C747.707 158.5 744.126 161.664 744.003 165.769C743.875 170.016 747.28 173.5 751.5 173.5H755.5C756.052 173.5 756.5 173.948 756.5 174.5V178.186C756.5 182.293 759.665 185.874 763.77 185.997C768.017 186.124 771.5 182.719 771.5 178.5V174.5C771.5 173.948 771.948 173.5 772.5 173.5H776.5C780.719 173.5 784.124 170.017 783.997 165.769C783.873 161.664 780.292 158.5 776.186 158.5Z" fill="#EDC28D"/>
<circle cx="570.5" cy="109.5" r="4.5" fill="#EAA760"/>
<circle cx="781.5" cy="112.5" r="4.5" fill="#EAAF64"/>
<circle cx="705.5" cy="133.5" r="3.5" fill="#EA9959"/>
<circle cx="614.5" cy="98.5" r="1.5" fill="#EAB165"/>
<circle cx="653.5" cy="138.5" r="1.5" fill="#EAB165"/>
<path d="M0 331.5C45.6667 319.167 144.8 285.4 176 249C215 203.5 256.5 200 285 224.5C313.5 249 255 287 321.5 287C388 287 425.5 295 416.5 322.5" stroke="url(#MainIllustration-paint2_linear)" stroke-width="2"/>
<path d="M58 344C91.0076 332.077 162.661 299.435 185.212 264.247C213.401 220.262 243.397 216.879 263.996 240.563C284.596 264.247 242.313 300.982 290.378 300.982C338.444 300.982 365.549 308.715 359.044 335.3" stroke="url(#MainIllustration-paint3_linear)" stroke-width="2"/>
<path d="M89 356C114.575 345.492 170.095 316.722 187.568 285.709C209.41 246.943 232.652 243.961 248.613 264.835C264.574 285.709 231.812 318.086 269.055 318.086C306.298 318.086 327.3 324.902 322.259 348.332" stroke="url(#MainIllustration-paint4_linear)" stroke-width="2"/>
<circle cx="303.5" cy="222.5" r="8.5" fill="#EA9055"/>
<circle cx="198.5" cy="286.5" r="2.5" fill="#EA8D52"/>
<circle cx="393.5" cy="210.5" r="4.5" fill="#EDB57F"/>
<circle cx="262.5" cy="219.5" r="3.5" fill="#EA8D52"/>
<circle cx="202.5" cy="235.5" r="1.5" fill="#EDBA85"/>
<circle cx="352.5" cy="191.5" r="1.5" fill="#EA8D52"/>
<path d="M747.5 372C779 249.167 943.3 11 1348.5 41" stroke="#1C1F39" stroke-width="15"/>
<g clip-path="url(#MainIllustration-clip1)">
<path fill-rule="evenodd" clip-rule="evenodd" d="M1309.8 354.115C1336.61 318.43 1352.5 274.07 1352.5 226C1352.5 108.087 1256.91 12.5 1139 12.5C1089.49 12.5 1043.92 29.349 1007.71 57.626C1007.04 58.1544 1006.36 58.6868 1005.7 59.2232C956.808 98.3461 925.5 158.514 925.5 226C925.5 343.91 1021.09 439.5 1139 439.5C1207.05 439.5 1267.66 407.666 1306.75 358.073C1307.78 356.772 1308.8 355.452 1309.8 354.115Z" fill="url(#MainIllustration-paint5_radial)"/>
<path d="M1077 194C1077 199.247 1075.94 204.245 1074.01 208.791C1068.25 222.43 1054.91 226.5 1039.17 226.5C1018.18 226.5 1008.43 216.487 1008.43 195.5C1008.43 179.82 1010.5 164.859 1024.05 159.053C1028.64 157.088 1033.69 156 1039 156C1059.99 156 1077 173.013 1077 194Z" fill="#7345F0"/>
<path d="M1261.5 142.5C1261.5 146.925 1260.25 151.058 1258.08 154.566C1254.03 161.128 1247.43 163.894 1239.15 163.894C1226.45 163.894 1217.79 155.413 1217.79 142.71C1217.79 133.518 1220.89 125.375 1228.69 121.693C1231.66 120.287 1234.99 119.5 1238.5 119.5C1251.2 119.5 1261.5 129.797 1261.5 142.5Z" fill="#7345F0"/>
<path d="M1278.5 318.5C1278.5 321.535 1277.91 324.433 1276.84 327.086C1273.44 335.536 1265.17 337.171 1255.5 337.171C1242.8 337.171 1239.15 331.413 1239.15 318.711C1239.15 307.596 1240.38 298.113 1250.86 295.968C1252.36 295.662 1253.91 295.501 1255.5 295.501C1268.2 295.5 1278.5 305.797 1278.5 318.5Z" fill="#7345F0"/>
<path d="M1147.5 95.5C1156.06 95.5 1163 88.5604 1163 80C1163 71.4396 1156.06 64.5 1147.5 64.5C1138.94 64.5 1132 71.4396 1132 80C1132 88.5604 1138.94 95.5 1147.5 95.5Z" fill="#7345F0"/>
<path d="M1137 230.5C1146.66 230.5 1154.5 222.665 1154.5 213C1154.5 203.335 1146.66 195.5 1137 195.5C1127.34 195.5 1119.5 203.335 1119.5 213C1119.5 222.665 1127.34 230.5 1137 230.5Z" fill="#7345F0"/>
<path d="M977 282.5C985.008 282.5 991.5 276.008 991.5 268C991.5 259.992 985.008 253.5 977 253.5C968.992 253.5 962.5 259.992 962.5 268C962.5 276.008 968.992 282.5 977 282.5Z" fill="#7345F0"/>
<path d="M1283 255.5C1291.01 255.5 1297.5 249.008 1297.5 241C1297.5 232.992 1291.01 226.5 1283 226.5C1274.99 226.5 1268.5 232.992 1268.5 241C1268.5 249.008 1274.99 255.5 1283 255.5Z" fill="#7345F0"/>
<path d="M1046.5 126.83C1050.55 126.83 1053.83 123.548 1053.83 119.5C1053.83 115.452 1050.55 112.17 1046.5 112.17C1042.45 112.17 1039.17 115.452 1039.17 119.5C1039.17 123.548 1042.45 126.83 1046.5 126.83Z" fill="#7345F0"/>
<path d="M1312.5 195.83C1316.55 195.83 1319.83 192.548 1319.83 188.5C1319.83 184.452 1316.55 181.17 1312.5 181.17C1308.45 181.17 1305.17 184.452 1305.17 188.5C1305.17 192.548 1308.45 195.83 1312.5 195.83Z" fill="#7345F0"/>
<path d="M1208.5 84.83C1212.55 84.83 1215.83 81.5482 1215.83 77.5C1215.83 73.4518 1212.55 70.17 1208.5 70.17C1204.45 70.17 1201.17 73.4518 1201.17 77.5C1201.17 81.5482 1204.45 84.83 1208.5 84.83Z" fill="#7345F0"/>
</g>
</g>
<defs>
<linearGradient id="MainIllustration-paint0_linear" x1="405" y1="86.8365" x2="1033" y2="86.8365" gradientUnits="userSpaceOnUse">
<stop stop-color="#7445F0"/>
<stop offset="1" stop-color="#4338E3"/>
</linearGradient>
<radialGradient id="MainIllustration-paint1_radial" cx="0" cy="0" r="1" gradientUnits="userSpaceOnUse" gradientTransform="translate(618.598 346.781) rotate(-62.252) scale(161.122)">
<stop stop-color="#EFDAA9"/>
<stop offset="1" stop-color="#EA8D52"/>
</radialGradient>
<linearGradient id="MainIllustration-paint2_linear" x1="-3.11302e-06" y1="270.468" x2="417.823" y2="270.468" gradientUnits="userSpaceOnUse">
<stop stop-color="#EBCD72"/>
<stop offset="1" stop-color="#EA9055"/>
</linearGradient>
<linearGradient id="MainIllustration-paint3_linear" x1="58" y1="285" x2="360" y2="285" gradientUnits="userSpaceOnUse">
<stop stop-color="#EBCD72"/>
<stop offset="1" stop-color="#EA9055"/>
</linearGradient>
<linearGradient id="MainIllustration-paint4_linear" x1="89" y1="304" x2="323" y2="304" gradientUnits="userSpaceOnUse">
<stop stop-color="#EBCD72"/>
<stop offset="1" stop-color="#EA9055"/>
</linearGradient>
<radialGradient id="MainIllustration-paint5_radial" cx="0" cy="0" r="1" gradientUnits="userSpaceOnUse" gradientTransform="translate(1212 257.5) rotate(-109.115) scale(239.718)">
<stop stop-color="#B19CF8"/>
<stop offset="1" stop-color="#8563F5"/>
</radialGradient>
<clipPath id="MainIllustration-clip0">
<rect width="1333" height="308" fill="white" transform="translate(0 -6)"/>
</clipPath>
<clipPath id="MainIllustration-clip1">
<rect width="512" height="512" fill="white" transform="translate(883 -30)"/>
</clipPath>
</defs>
</svg>
