<svg width="512" height="512" viewBox="0 0 512 512" fill="none" xmlns="http://www.w3.org/2000/svg">
<g clip-path="url(#Trash-clip0)">
<path d="M261.355 134.486H206.071C192.481 134.486 181.462 123.469 181.462 109.877V54.5939C181.462 41.0029 192.48 29.9841 206.071 29.9841H261.355C274.946 29.9841 285.965 41.0019 285.965 54.5939V109.878C285.964 123.469 274.946 134.486 261.355 134.486Z" fill="url(#Trash-paint0_linear)"/>
<path d="M174.254 111.087L135.163 150.179C125.552 159.789 109.97 159.789 100.36 150.179L61.2683 111.087C51.6576 101.476 51.6576 85.8951 61.2683 76.2844L100.36 37.1926C109.971 27.582 125.552 27.582 135.163 37.1926L174.254 76.2844C183.864 85.8941 183.864 101.476 174.254 111.087V111.087Z" fill="url(#Trash-paint1_linear)"/>
<path d="M266.019 482.016H74.0052C38.6567 482.016 10.0007 453.36 10.0007 418.011V141.992H330.023V418.011C330.023 453.36 301.367 482.016 266.019 482.016Z" fill="url(#Trash-paint2_linear)"/>
<path d="M82.0058 426.012C69.8549 426.012 60.0042 416.161 60.0042 404.01V214.568C60.0042 202.417 69.8549 192.566 82.0058 192.566C94.1566 192.566 104.007 202.417 104.007 214.568V404.01C104.007 416.161 94.1566 426.012 82.0058 426.012Z" fill="url(#Trash-paint3_linear)"/>
<path d="M170.012 426.012C157.861 426.012 148.01 416.161 148.01 404.01V214.568C148.01 202.417 157.861 192.566 170.012 192.566C182.163 192.566 192.014 202.417 192.014 214.568V404.01C192.014 416.161 182.163 426.012 170.012 426.012Z" fill="url(#Trash-paint4_linear)"/>
<path d="M258.018 426.012C245.867 426.012 236.017 416.161 236.017 404.01V214.568C236.017 202.417 245.867 192.566 258.018 192.566C270.169 192.566 280.02 202.417 280.02 214.568V404.01C280.02 416.161 270.169 426.012 258.018 426.012Z" fill="url(#Trash-paint5_linear)"/>
<path d="M26.0018 97.9888H314.022V141.992H26.0018V97.9888Z" fill="url(#Trash-paint6_linear)"/>
<path d="M340.499 247.123L330.33 187.224C341.877 175.677 360.596 175.677 372.143 187.224C383.69 198.771 402.409 198.77 413.956 187.224C425.503 175.677 444.222 175.677 455.769 187.224L441.557 247.123H340.499Z" fill="url(#Trash-paint7_linear)"/>
<path d="M441.556 247.123H340.499L288.897 354.565C260.538 413.611 303.571 482.016 369.074 482.016H412.982C478.485 482.016 521.517 413.611 493.159 354.565L441.556 247.123Z" fill="url(#Trash-paint8_linear)"/>
<path d="M82.0058 182.566C64.3595 182.566 50.0035 196.922 50.0035 214.568V404.01C50.0035 421.657 64.3595 436.013 82.0058 436.013C99.652 436.013 114.008 421.657 114.008 404.01V214.568C114.008 196.922 99.652 182.566 82.0058 182.566V182.566ZM94.0066 404.01C94.0066 410.628 88.6233 416.011 82.0058 416.011C75.3883 416.011 70.0049 410.628 70.0049 404.01V214.568C70.0049 207.951 75.3883 202.567 82.0058 202.567C88.6233 202.567 94.0066 207.951 94.0066 214.568V404.01Z" fill="#22283F"/>
<path d="M170.012 182.566C152.366 182.566 138.01 196.922 138.01 214.568V404.01C138.01 421.657 152.366 436.013 170.012 436.013C187.658 436.013 202.014 421.657 202.014 404.01V214.568C202.014 196.922 187.658 182.566 170.012 182.566V182.566ZM182.013 404.01C182.013 410.628 176.629 416.011 170.012 416.011C163.394 416.011 158.011 410.628 158.011 404.01V214.568C158.011 207.951 163.394 202.567 170.012 202.567C176.629 202.567 182.013 207.951 182.013 214.568V404.01Z" fill="#22283F"/>
<path d="M502.172 350.236L452.105 245.987L465.499 189.533C466.3 186.157 465.293 182.607 462.84 180.154C455.366 172.68 445.43 168.565 434.862 168.565C424.293 168.565 414.356 172.68 406.884 180.154C403.188 183.849 398.275 185.884 393.049 185.884C387.822 185.884 382.909 183.849 379.215 180.154C371.741 172.68 361.805 168.565 351.236 168.565C347.384 168.565 343.618 169.118 340.024 170.174V141.992C340.024 136.469 335.547 131.991 330.023 131.991H324.023V97.9889C324.023 92.4655 319.545 87.9882 314.022 87.9882H295.965V54.5928C295.965 35.5085 280.439 19.9834 261.355 19.9834H206.071C186.987 19.9834 171.461 35.5095 171.461 54.5928V59.3472L142.234 30.1201C135.697 23.5837 127.005 19.9834 117.761 19.9834C108.517 19.9834 99.825 23.5837 93.2876 30.1201L54.1958 69.2119C49.0365 74.3722 45.7242 80.9667 44.5491 87.9882H26.0018C20.4784 87.9882 16.0011 92.4655 16.0011 97.9889V131.991H10.0007C4.47732 131.991 0 136.469 0 141.992V418.011C0 458.818 33.1983 492.017 74.0052 492.017H266.019C283.313 492.017 300.103 485.849 313.313 474.893C329.451 485.916 348.749 492.017 369.074 492.017H412.981C447.202 492.017 478.511 474.723 496.733 445.757C514.954 416.791 516.988 381.082 502.172 350.236V350.236ZM351.236 188.565C356.462 188.565 361.375 190.6 365.071 194.296C372.544 201.768 382.48 205.884 393.049 205.884C403.617 205.884 413.553 201.768 421.027 194.296C424.722 190.6 429.635 188.565 434.862 188.565C438.32 188.565 441.641 189.456 444.563 191.129L433.65 237.123H348.945L341.173 191.342C344.181 189.532 347.634 188.565 351.236 188.565V188.565ZM206.071 39.9848H261.355C269.411 39.9848 275.963 46.5383 275.963 54.5928V87.9882H191.461V54.5928C191.462 46.5383 198.016 39.9848 206.071 39.9848V39.9848ZM68.3398 83.3559L107.432 44.2641C110.191 41.5049 113.859 39.9848 117.761 39.9848C121.663 39.9848 125.332 41.5039 128.091 44.2641L167.182 83.3559C168.527 84.6999 169.561 86.2821 170.284 87.9882H65.2366C65.9596 86.2811 66.9947 84.6999 68.3398 83.3559ZM74.0052 472.015C44.2271 472.015 20.0014 447.789 20.0014 418.011V151.993H125.009C130.532 151.993 135.009 147.515 135.009 141.992C135.009 136.469 130.532 131.991 125.009 131.991H36.0025V107.99H304.021V131.991H215.015C209.492 131.991 205.014 136.469 205.014 141.992C205.014 147.515 209.492 151.993 215.015 151.993H320.023V266.659L290.02 329.127V214.569C290.02 196.923 275.664 182.567 258.018 182.567C240.372 182.567 226.016 196.923 226.016 214.569V404.011C226.016 421.658 240.372 436.014 258.018 436.014C265.175 436.014 271.79 433.651 277.125 429.667C279.343 435.201 282.069 440.588 285.321 445.758C288.97 451.56 293.153 456.883 297.77 461.702C288.618 468.398 277.645 472.016 266.018 472.016H74.0052V472.015ZM270.019 214.568V404.01C270.019 410.628 264.636 416.011 258.018 416.011C251.401 416.011 246.017 410.628 246.017 404.01V214.568C246.017 207.951 251.401 202.567 258.018 202.567C264.636 202.567 270.019 207.952 270.019 214.568V214.568ZM479.803 435.108C465.265 458.218 440.284 472.015 412.981 472.015H369.074C341.771 472.015 316.79 458.218 302.252 435.108C287.714 411.997 286.091 383.506 297.912 358.894L346.79 257.125H435.266L484.144 358.895C495.964 383.506 494.341 411.997 479.803 435.108V435.108Z" fill="#22283F"/>
<path d="M170.012 151.993C172.642 151.993 175.222 150.923 177.082 149.062C178.943 147.202 180.013 144.622 180.013 141.992C180.013 139.362 178.943 136.782 177.082 134.921C175.222 133.061 172.642 131.991 170.012 131.991C167.382 131.991 164.802 133.061 162.941 134.921C161.081 136.782 160.011 139.362 160.011 141.992C160.011 144.622 161.081 147.202 162.941 149.062C164.802 150.923 167.382 151.993 170.012 151.993Z" fill="#22283F"/>
</g>
<defs>
<linearGradient id="Trash-paint0_linear" x1="181.462" y1="82.2353" x2="285.965" y2="82.2353" gradientUnits="userSpaceOnUse">
<stop stop-color="#EBCD72"/>
<stop offset="1" stop-color="#EA9055"/>
</linearGradient>
<linearGradient id="Trash-paint1_linear" x1="54.0603" y1="93.6856" x2="181.462" y2="93.6856" gradientUnits="userSpaceOnUse">
<stop stop-color="#F28EDD"/>
<stop offset="1" stop-color="#BE33A8"/>
</linearGradient>
<linearGradient id="Trash-paint2_linear" x1="10.0007" y1="312.004" x2="330.023" y2="312.004" gradientUnits="userSpaceOnUse">
<stop stop-color="#63C58F"/>
<stop offset="1" stop-color="#65C9C9"/>
</linearGradient>
<linearGradient id="Trash-paint3_linear" x1="60.0042" y1="297.003" x2="104.007" y2="297.003" gradientUnits="userSpaceOnUse">
<stop stop-color="#E96FCF"/>
<stop offset="1" stop-color="#BA67C8"/>
</linearGradient>
<linearGradient id="Trash-paint4_linear" x1="148.01" y1="297.003" x2="192.013" y2="297.003" gradientUnits="userSpaceOnUse">
<stop stop-color="#E96FCF"/>
<stop offset="1" stop-color="#BA67C8"/>
</linearGradient>
<linearGradient id="Trash-paint5_linear" x1="236.017" y1="297.003" x2="280.02" y2="297.003" gradientUnits="userSpaceOnUse">
<stop stop-color="#E96FCF"/>
<stop offset="1" stop-color="#BA67C8"/>
</linearGradient>
<linearGradient id="Trash-paint6_linear" x1="26.0018" y1="119.99" x2="314.022" y2="119.99" gradientUnits="userSpaceOnUse">
<stop stop-color="#63C58F"/>
<stop offset="1" stop-color="#65C9C9"/>
</linearGradient>
<linearGradient id="Trash-paint7_linear" x1="330.33" y1="178.564" x2="455.769" y2="178.564" gradientUnits="userSpaceOnUse">
<stop stop-color="#80CDDF"/>
<stop offset="1" stop-color="#56A3E6"/>
</linearGradient>
<linearGradient id="Trash-paint8_linear" x1="280.02" y1="247.123" x2="502.036" y2="247.123" gradientUnits="userSpaceOnUse">
<stop stop-color="#80CDDF"/>
<stop offset="1" stop-color="#56A3E6"/>
</linearGradient>
<clipPath id="Trash-clip0">
<rect width="512" height="512" fill="white"/>
</clipPath>
</defs>
</svg>
